<?xml version="1.0" encoding="UTF-8"?>
<!DOCTYPE svg PUBLIC "-//W3C//DTD SVG 1.1//EN" "http://www.w3.org/Graphics/SVG/1.1/DTD/svg11.dtd">
<!-- Creator: CorelDRAW -->
<svg xmlns="http://www.w3.org/2000/svg" xml:space="preserve" width="11.6929in" height="8.26772in" style="shape-rendering:geometricPrecision; text-rendering:geometricPrecision; image-rendering:optimizeQuality; fill-rule:evenodd; clip-rule:evenodd"
viewBox="0 0 11.6929 8.26772"
 xmlns:xlink="http://www.w3.org/1999/xlink">
 <defs>
  <style type="text/css">
   <![CDATA[
    .fil2 {fill:#007CC3}
    .fil0 {fill:#004686;fill-rule:nonzero}
    .fil1 {fill:#005CA1;fill-rule:nonzero}
    .fil3 {fill:#05477D;fill-rule:nonzero}
   ]]>
  </style>
 </defs>
 <g id="Layer_x0020_1">
  <metadata id="CorelCorpID_0Corel-Layer"/>
  <path class="fil0" d="M2.05548 3.69215l0.00320472 0.0114646 0.000153543 0.000559055c0.0216929,0.0776457 0.043937,0.157602 0.0665748,0.239752 0.00701969,0.0252992 0.022811,0.0487362 0.0425197,0.0650039 0.0198543,0.0167441 0.0433504,0.0261693 0.0655394,0.0246457 0.0967008,-0.00665354 0.190764,-0.0127717 0.283252,-0.018937 0.00156693,-0.00011811 0.00291339,-0.000204724 0.00432677,-0.00015748 -0.00855118,-0.0245709 -0.0171024,-0.0491378 -0.0255906,-0.0738819 -0.00290157,-0.00846063 -0.00140945,-0.0160433 0.00398425,-0.0199803 0.0053189,-0.00425591 0.0128189,-0.00324409 0.0204961,0.00216929 0.102217,0.0727205 0.206004,0.146689 0.311303,0.22111 0.00593701,0.00419685 0.0102677,0.00963386 0.0130512,0.016752 0.00278346,0.00695669 0.00308661,0.0132913 0.000744094,0.0182126 -0.0424449,0.0914606 -0.0867913,0.187071 -0.133539,0.287118 -0.00348425,0.00745669 -0.0110276,0.00968898 -0.0197717,0.00618898 -0.00874409,-0.00349606 -0.0160039,-0.012 -0.019626,-0.0224291 -0.010685,-0.0307441 -0.0211654,-0.0609291 -0.0314528,-0.090811 -0.0594803,0.00605118 -0.119839,0.0123425 -0.180512,0.0185 0,0 0,0 -6.69291e-005,-0.000338583 -0.0413307,0.00445669 -0.0822559,0.00855512 -0.123177,0.0126614 -0.106772,0.0109606 -0.219287,-0.0344173 -0.312256,-0.11563 -0.0915157,-0.0797874 -0.16115,-0.191622 -0.188075,-0.313516 -0.0192126,-0.0870236 -0.038122,-0.17152 -0.0563071,-0.253484 -0.0153031,-0.0675472 -0.112768,-0.500461 -0.127272,-0.563346 -0.0189764,-0.0836811 -0.000429134,-0.155748 0.0437913,-0.204906 0.0427402,-0.0474724 0.109913,-0.0742323 0.191382,-0.0702638 0.049185,0.0023622 0.0982244,0.00470472 0.146161,0.00700394 0.0529685,0.00252362 0.106937,0.018315 0.157488,0.0438661 -0.00213386,0.0020315 -0.004,0.00423622 -0.00560236,0.00677953 -0.0299173,0.0524094 -0.0604252,0.106787 -0.0921575,0.162827 -0.046,-0.00134252 -0.0934921,-0.00288189 -0.140984,-0.00425591 -0.0188661,-0.000515748 -0.033874,0.00637795 -0.0430276,0.0180079 -0.0091811,0.0116654 -0.012374,0.0279055 -0.00709843,0.0464921 0.0166811,0.0586102 0.126189,0.449035 0.152524,0.542823l1.9685e-005 0z"/>
  <path class="fil1" d="M1.56607 4.35422c-0.0633504,0.0688386 -0.149059,0.114976 -0.248535,0.125272 -0.0781299,0.0077126 -0.157429,0.0159488 -0.237937,0.0240827 -0.133933,0.013685 -0.260866,-0.036437 -0.352925,-0.128102 -0.0897559,-0.0902717 -0.142677,-0.216295 -0.141504,-0.354354 0.000673228,-0.0785236 0.00132677,-0.155268 0.0019685,-0.230232 0.00102362,-0.12065 0.0496339,-0.22665 0.126531,-0.300343 0.0736378,-0.0708819 0.174087,-0.113248 0.283571,-0.113417 0.080126,-0.000283465 0.159677,-0.000370079 0.236634,-0.000413386 0.0119685,0.0945118 0.0241496,0.192933 0.0370118,0.295622 -0.0815315,0.00253543 -0.166008,0.005 -0.251114,0.00729921 -0.0255079,0.000901575 -0.0483307,0.0122205 -0.0644173,0.0296102 -0.0163819,0.0176457 -0.0255551,0.0421142 -0.0241024,0.0682008 0.00407874,0.0724961 0.00801181,0.146543 0.012248,0.222496 0.00179921,0.0287677 0.014374,0.0548228 0.0340315,0.0731929 0.0195591,0.0187087 0.0455039,0.0290276 0.073248,0.0272913 0.0751693,-0.0051378 0.149657,-0.0102165 0.223024,-0.0152008 0.00514961,-0.000389764 0.010252,-0.00115354 0.0148583,-0.00245669 0.0760394,0.0808189 0.153469,0.163484 0.232535,0.24737 0.00848425,0.0088622 0.0176339,0.0152205 0.0278701,0.0192362 0.00553937,0.00242126 0.0114567,0.00409055 0.0170039,0.00484646z"/>
  <path class="fil1" d="M2.48184 3.32156c-0.0018189,-0.00470472 -0.00361417,-0.00941339 -0.00535827,-0.0137953 -0.00499606,-0.0129843 -0.0101339,-0.0256457 -0.0151575,-0.0386339 -0.0136654,-0.0352205 -0.0275472,-0.070122 -0.0409134,-0.104531 -0.000476378,-0.0011378 -0.00120079,-0.00260236 -0.00167717,-0.00374016 0.0170512,0.000350394 0.0341575,0.000787402 0.0513976,0.0012126 0.00606299,0.000149606 0.0101811,-0.00309449 0.0103307,-0.00870866 0.000901575,-0.00559843 -0.00287795,-0.0117362 -0.00872835,-0.0164606 -0.0793701,-0.0643307 -0.156878,-0.127378 -0.233146,-0.189831 -0.00399213,-0.00326772 -0.00868504,-0.00535039 -0.013563,-0.00552756 -0.00433465,-0.000326772 -0.00767717,0.00133465 -0.00939764,0.00451969 -0.0325748,0.0582008 -0.0659685,0.118638 -0.100594,0.181283 -0.00254724,0.0046063 -0.00125197,0.0109331 0.00327165,0.0169252 0.00452362,0.00599606 0.0113386,0.00974803 0.0177795,0.00990157 0.0187559,0.000452756 0.0375079,0.00073622 0.0563071,0.00127165 0.00980315,0.0283228 0.0196732,0.0569764 0.0294567,0.0859646 0,0 0,0 0.000192913,0 0.00746063,0.0213228 0.0149606,0.042815 0.0223189,0.0643071 0.00652756,0.0191575 0.00494488,0.0368898 -0.00301969,0.049874 -0.008,0.0130197 -0.0228583,0.0211181 -0.0419016,0.0210512 -0.0188465,9.44882e-005 -0.0378898,2.3622e-005 -0.0569331,-5.11811e-005l-0.141075 -5.90551e-005 0.0797913 0.273059c0.00636614,-0.000169291 0.0127677,-0.000358268 0.0192087,-0.000566929 0.0630945,-0.00175984 0.126232,-0.00334252 0.18728,-0.00501575 0.0890079,-0.00249213 0.155031,-0.0441929 0.18772,-0.108059 0.0307598,-0.0579921 0.0344488,-0.133496 0.00601969,-0.214386 0,0 0.000192913,0 0.000389764,-3.93701e-006zm-0.79926 0.0548425l-0.00911811 1.1811e-005c0.015252,7.87402e-006 0.0503504,-0.000594488 0.00911811,-1.1811e-005zm-0.0115945 1.1811e-005c-0.0239528,7.87402e-006 -0.0480591,-7.87402e-005 -0.0723071,-3.54331e-005 0.0186654,0.0910591 0.0378504,0.186055 0.0577441,0.284988 0.0085748,-0.000173228 0.016937,-0.000527559 0.025685,-0.000893701 0.0155551,-0.00046063 0.0310472,-0.000870079 0.0463898,-0.00127953l-0.0575118 -0.28278z"/>
  <path class="fil0" d="M1.49872 3.06728c0.00445669,0.0231772 0.00911417,0.0463465 0.0136339,0.069874 0.00154724,0.00772441 0.00303937,0.0150906 0.00434646,0.0226339 0.0138583,0.0700551 0.0280748,0.142268 0.0427008,0.216638 0.0177874,0.0914291 0.0360512,0.186819 0.0554094,0.286157 0.00251575,0.0131142 0.0050315,0.0264055 0.00755512,0.0396969 0.00440945,0.0229961 0.00879528,0.045811 0.0132913,0.0693425 0.00211417,0.0109567 0.00423228,0.0219134 0.00635433,0.0330512 0,0 0.000212598,-1.1811e-005 0.000429134,-2.3622e-005 0.00774409,0.0396969 0.0153504,0.0799331 0.0232795,0.120709 0.0240748,-0.00138583 0.0485512,-0.00270079 0.0730551,-0.00401969 0.00875984,-0.000468504 0.0168425,0.00424803 0.0222717,0.0124646 0.0054252,0.0082126 0.00628346,0.0178189 0.0019252,0.0253307 -0.0556417,0.103913 -0.114071,0.213465 -0.175539,0.328524 -0.0034685,0.0067874 -0.00901575,0.010622 -0.0159764,0.0112717 -0.00719291,0.000476378 -0.0139291,-0.00222047 -0.0194724,-0.00835827 -0.0986732,-0.102823 -0.194354,-0.203476 -0.287819,-0.302232 -0.00669685,-0.00725591 -0.00901969,-0.017248 -0.0061811,-0.0264567 0.00284646,-0.00901575 0.00974409,-0.0148346 0.0189331,-0.0153268 0.0247362,-0.00133858 0.0494646,-0.00266929 0.0746102,-0.00429134 -0.000216535,-0.00185039 -0.000653543,-0.00370079 -0.000874016,-0.00555118 -0.00691732,-0.0521417 -0.0134843,-0.102992 -0.020185,-0.153102 -0.00324803,-0.0242205 -0.00622441,-0.0479016 -0.00938976,-0.0713858 -0.00181496,-0.0136811 -0.00364567,-0.0275472 -0.00545276,-0.0412323 -0.0138622,-0.102248 -0.0268071,-0.200252 -0.039311,-0.29437 -0.0110669,-0.0802441 -0.021437,-0.157902 -0.0319094,-0.23315 -0.000468504,-0.00406693 -0.00114567,-0.0081378 -0.00163386,-0.0122047 -0.00344488,-0.0242205 -0.00646063,-0.0480709 -0.00964173,-0.0715472 -0.00492126,-0.0351299 0.0232441,-0.0620472 0.0621181,-0.0607087 0.0411024,0.00141732 0.0820236,0.00279921 0.12237,0.00419291 0.0379803,0.00131496 0.0743386,0.0297677 0.0811024,0.0640748zm-0.23852 -0.293728c0.039,0.00205118 0.0778268,0.00410236 0.116476,0.00612992 0.0360157,0.00188976 0.0702362,0.0284134 0.0764606,0.0592953 0.0051063,0.0253425 0.0102126,0.0506575 0.0153071,0.0763386 0.00641339,0.0323346 -0.0186417,0.0583858 -0.0565591,0.056937 -0.0400866,-0.00152756 -0.0807441,-0.00314961 -0.121587,-0.00461024 -0.0384331,-0.00137795 -0.0740906,-0.0303228 -0.0786299,-0.0632205 -0.00360236,-0.0260787 -0.00738976,-0.052126 -0.0109173,-0.0776496 -0.00436614,-0.0315984 0.022378,-0.0551693 0.0594488,-0.0532205z"/>
  <path class="fil2" d="M1.72254 2.47674c0.132441,0.0272677 0.248114,0.0674961 0.358744,0.118917 0.106673,0.0495827 0.206717,0.110106 0.297256,0.179008 0.0890354,0.0677559 0.171811,0.14552 0.242654,0.229831 0.0725354,0.0863307 0.134638,0.179264 0.184858,0.285469 0.0502165,0.106201 0.084185,0.219902 0.0989921,0.328815 0.0159094,0.116996 0.0102559,0.235579 -0.0175236,0.34924 -0.00791339,0.032374 -0.0177244,0.0645039 -0.0294646,0.0962165 -0.0702835,-0.0484567 -0.139906,-0.096685 -0.208843,-0.144465 0.0102559,-0.022748 0.0403976,-0.0865748 0.0441654,-0.0975433 0.0292598,-0.0852205 0.0401142,-0.176189 0.0326693,-0.26915 -0.00698031,-0.0871654 -0.0306535,-0.179508 -0.0694764,-0.267307 -0.0388228,-0.0877953 -0.0887677,-0.165496 -0.147803,-0.237276 -0.0578268,-0.0703031 -0.126618,-0.134902 -0.201374,-0.191488 -0.0751614,-0.0568898 -0.15872,-0.106323 -0.247382,-0.145866 -0.0913307,-0.0407362 -0.187193,-0.0712165 -0.294559,-0.0898268 -0.107366,-0.0186142 -0.218398,-0.0224409 -0.319051,-0.0103858 -0.108921,0.0130472 -0.211815,0.0435197 -0.301803,0.0913228 -0.0992795,0.0527402 -0.185902,0.125693 -0.249024,0.217799 -0.0686575,0.100185 -0.10965,0.216803 -0.111331,0.360268 -0.000255906,0.0217441 0.000547244,0.0437441 0.00237795,0.0658976 -0.289929,0.116354 -0.300776,0.358854 -0.303283,0.645193 -0.0680433,-0.114787 -0.128906,-0.288965 -0.148413,-0.386594 -0.0211102,-0.105654 -0.0313937,-0.163055 -0.0135551,-0.31322 0.0178346,-0.150161 0.10178,-0.355929 0.216567,-0.486768 0.102598,-0.116945 0.231016,-0.205413 0.373012,-0.264693 0.127417,-0.053189 0.266197,-0.0841535 0.40861,-0.0931181 0.130106,-0.00819291 0.270535,0.00246063 0.40298,0.0297244z"/>
  <path class="fil3" d="M3.48555 3.49604l0 -0.498732 0.106874 0c0.0266929,0 0.0492087,0.00237402 0.0673504,0.00722047 0.0181457,0.00484252 0.0328701,0.0128228 0.0439843,0.023937 0.0111142,0.0111142 0.0190945,0.0258386 0.0239409,0.0439843 0.00484252,0.0181457 0.00721654,0.0406575 0.00721654,0.0673543l0 0.195882c0,0.0267874 -0.00237402,0.0501575 -0.00721654,0.0702008 -0.00484646,0.0200472 -0.0128268,0.0366693 -0.0239409,0.050063 -0.0111142,0.0133976 -0.0258386,0.0233701 -0.0440787,0.0301142 -0.0183346,0.00664961 -0.0409409,0.00997638 -0.0678268,0.00997638l-0.106303 0zm0.106874 -0.0534843c0.0178583,0 0.0315394,-0.00227953 0.0412283,-0.00693307 0.00959449,-0.00465354 0.016622,-0.0119685 0.0210866,-0.0220394 0.0044685,-0.00997638 0.0070315,-0.0228937 0.00779134,-0.0386654 0.000759843,-0.0157677 0.00114173,-0.0347677 0.00114173,-0.0569961l0 -0.16026c0,-0.0178583 -0.00038189,-0.0334409 -0.00114173,-0.0467402 -0.000759843,-0.0133937 -0.00332283,-0.0245079 -0.00788583,-0.033437 -0.00455906,-0.00892913 -0.0117795,-0.0155787 -0.021563,-0.0200433 -0.00987795,-0.00446457 -0.0238425,-0.00664961 -0.0420827,-0.00664961l-0.0342008 0 0 0.391764 0.035626 0z"/>
  <polygon id="1" class="fil3" points="3.9575,3.26444 3.86848,3.26444 3.86848,3.44256 3.99312,3.44256 3.99312,3.49604 3.79724,3.49604 3.79724,2.99731 3.99312,2.99731 3.99312,3.05079 3.86848,3.05079 3.86848,3.21095 3.9575,3.21095 "/>
  <path id="12" class="fil3" d="M4.17133 2.99731c0.0222283,0 0.0412283,0.00322835 0.057,0.00978346 0.0157677,0.00646063 0.028689,0.0157717 0.0386614,0.0280236 0.0100709,0.0122559 0.0173858,0.0271693 0.0220394,0.0448386 0.00465354,0.0175748 0.00693307,0.0375236 0.00693307,0.0598504 0,0.0222283 -0.00313386,0.0412283 -0.00949606,0.0569961 -0.00627165,0.0157717 -0.0150118,0.028689 -0.026126,0.0386654 -0.0111142,0.0100669 -0.0243189,0.0173819 -0.0395197,0.0220394 -0.0151969,0.00465354 -0.0317283,0.00693307 -0.0494921,0.00693307l-0.0534843 0 0 0.231602 -0.071248 0 0 -0.498732 0.124732 0zm-0.035622 0.213646c0.0177638,0 0.0323937,-0.00123228 0.0438858,-0.00361024 0.0114961,-0.00237402 0.0206142,-0.0063622 0.0273583,-0.0119685 0.00665354,-0.00550787 0.0113071,-0.0129173 0.0138701,-0.0219449 0.00256693,-0.00911811 0.00389764,-0.0203268 0.00389764,-0.033626 0,-0.0133976 -0.000476378,-0.0255551 -0.0014252,-0.0364803 -0.000854331,-0.0109252 -0.0041811,-0.0202323 -0.00968898,-0.0280236 -0.0056063,-0.00779134 -0.0144409,-0.0138701 -0.0265079,-0.0181457 -0.0119685,-0.00427559 -0.0291614,-0.0063622 -0.0513898,-0.0063622l-0.0178622 0 0 0.160161 0.0178622 0z"/>
  <path id="123" class="fil3" d="M4.42773 3.37141l-0.0249843 0.124634 -0.0711535 0 0.104402 -0.498732 0.0735276 0 0.107063 0.498732 -0.068685 0 -0.0267874 -0.124634 -0.0933819 0zm0.0819803 -0.0534843l-0.035622 -0.213744 -0.035622 0.213744 0.0712441 0z"/>
  <path id="1234" class="fil3" d="M4.86937 3.49604l-0.0746693 -0.231602 -0.0534843 0 0 0.231602 -0.071248 0 0 -0.498732 0.0891102 0c0.0311575,0 0.0569961,0.00322835 0.0776102,0.00959449 0.0206142,0.00636614 0.0370472,0.0154843 0.0492087,0.0271693 0.0122559,0.011685 0.0208976,0.0257441 0.0259331,0.0420827 0.00503543,0.0164331 0.00750394,0.0346732 0.00750394,0.0547165 0,0.0122559 -0.000854331,0.0232756 -0.00265748,0.0331575 -0.00180709,0.00978346 -0.0041811,0.0186181 -0.00712598,0.026311 -0.00294488,0.00769685 -0.0063622,0.0144409 -0.0100669,0.0203307 -0.00370866,0.00588976 -0.00750787,0.0108307 -0.0114016,0.0149134 -0.00911811,0.0097874 -0.0195709,0.0169094 -0.031252,0.021185l0.0803661 0.249272 -0.0678268 0zm-0.128154 -0.285087l0.0178622 0c0.0132992,0 0.0254567,-0.00123228 0.0363819,-0.00379921 0.0110197,-0.0024685 0.0203307,-0.00674409 0.0281181,-0.0129173 0.00779134,-0.00608268 0.0138701,-0.014252 0.0181457,-0.0246063 0.00427559,-0.0102598 0.00636614,-0.0231772 0.00636614,-0.0387598 0,-0.0155787 -0.00209055,-0.0284961 -0.00636614,-0.0387559 -0.00427559,-0.0103543 -0.0103543,-0.0185236 -0.0181457,-0.0246063 -0.0077874,-0.00617323 -0.0170984,-0.0104488 -0.0281181,-0.0129173 -0.0109252,-0.00256693 -0.0230827,-0.00379921 -0.0363819,-0.00379921l-0.0178622 0 0 0.160161z"/>
  <polygon id="12345" class="fil3" points="5.22209,2.99731 5.22209,3.05573 5.13308,3.05573 5.13308,3.49604 5.06183,3.49604 5.06183,3.05573 4.97282,3.05573 4.97282,2.99731 "/>
  <path id="123456" class="fil3" d="M5.35395 3.37141l-0.0249843 0.124634 -0.0711535 0 0.104402 -0.498732 0.0735276 0 0.107063 0.498732 -0.068685 0 -0.0267874 -0.124634 -0.0933819 0zm0.0819803 -0.0534843l-0.035622 -0.213744 -0.035622 0.213744 0.0712441 0z"/>
  <polygon id="1234567" class="fil3" points="5.73869,3.49604 5.66744,3.10256 5.66744,3.49604 5.59619,3.49604 5.59619,2.99731 5.6928,2.99731 5.76367,3.37948 5.83454,2.99731 5.93457,2.99731 5.93457,3.49604 5.86332,3.49604 5.86332,3.10247 5.79207,3.49604 "/>
  <polygon id="12345678" class="fil3" points="6.16617,3.26444 6.07716,3.26444 6.07716,3.44256 6.2018,3.44256 6.2018,3.49604 6.00591,3.49604 6.00591,2.99731 6.2018,2.99731 6.2018,3.05079 6.07716,3.05079 6.07716,3.21095 6.16617,3.21095 "/>
  <polygon id="123456789" class="fil3" points="6.45401,3.49604 6.32652,3.16431 6.32652,3.49604 6.25528,3.49604 6.25528,2.99731 6.30202,2.99731 6.4334,3.32296 6.4334,2.99731 6.50464,2.99731 6.50464,3.49604 "/>
  <polygon id="12345678910" class="fil3" points="6.8074,2.99731 6.8074,3.05573 6.71839,3.05573 6.71839,3.49604 6.64714,3.49604 6.64714,3.05573 6.55813,3.05573 6.55813,2.99731 "/>
  <path id="1234567891011" class="fil3" d="M7.00337 3.50136c-0.0208031,0 -0.0387598,-0.0024685 -0.0538622,-0.00740945 -0.0151063,-0.00484252 -0.0279291,-0.011685 -0.0385669,-0.0203268 -0.0105472,-0.00855118 -0.0190945,-0.018811 -0.0255551,-0.0305906 -0.00655512,-0.0117795 -0.0115906,-0.0244134 -0.0152008,-0.038 -0.00361024,-0.0134882 -0.00607874,-0.0277362 -0.00731496,-0.0425591 -0.00133071,-0.0148189 -0.00199606,-0.0297323 -0.00199606,-0.0445512l0 -0.320614 0.071248 0 0 0.320898c0,0.00883465 9.44882e-005,0.0181457 0.000287402,0.0278346 0.000188976,0.00959449 0.000948819,0.0190945 0.00237402,0.0282126 0.00133071,0.00921654 0.00342126,0.0179567 0.00626772,0.026315 0.00275591,0.0083622 0.00684252,0.0156772 0.0120669,0.0219449 0.0053189,0.00617323 0.012063,0.0111142 0.0202323,0.0148189 0.00816929,0.00370472 0.0181457,0.0056063 0.0300197,0.0056063 0.011874,0 0.0218504,-0.00190157 0.0300197,-0.0056063 0.00816929,-0.00370472 0.0149134,-0.00864567 0.0202362,-0.0148189 0.00522441,-0.00626772 0.00930709,-0.0135827 0.012063,-0.0219449 0.00285039,-0.00835827 0.00494094,-0.0170984 0.00626772,-0.026315 0.0014252,-0.00911811 0.00218504,-0.0186181 0.00237795,-0.0282126 0.000188976,-0.00968898 0.000283465,-0.019 0.000283465,-0.0278346l0 -0.320898 0.071248 0 0 0.320614c0,0.0148189 -0.000665354,0.0297323 -0.00199606,0.0445512 -0.00123228,0.0148228 -0.00370472,0.0290709 -0.00731496,0.0425591 -0.00361024,0.0135866 -0.00864173,0.0262205 -0.0151969,0.038 -0.00646063,0.0117795 -0.0150118,0.0220394 -0.0255551,0.0305906 -0.0106417,0.00864173 -0.0234646,0.0154843 -0.0385709,0.0203268 -0.0151024,0.00494094 -0.0330591,0.00740945 -0.0538622,0.00740945z"/>
  <polygon id="123456789101112" class="fil3" points="7.21711,3.49604 7.21711,2.99731 7.28836,2.99731 7.28836,3.44256 7.413,3.44256 7.413,3.49604 "/>
  <path id="12345678910111213" class="fil3" d="M7.61591 3.49604l0 -0.498732 0.106874 0c0.0266929,0 0.0492087,0.00237402 0.0673504,0.00722047 0.0181457,0.00484252 0.0328701,0.0128228 0.0439843,0.023937 0.0111142,0.0111142 0.0190945,0.0258386 0.0239409,0.0439843 0.00484252,0.0181457 0.00721654,0.0406575 0.00721654,0.0673543l0 0.195882c0,0.0267874 -0.00237402,0.0501575 -0.00721654,0.0702008 -0.00484646,0.0200472 -0.0128268,0.0366693 -0.0239409,0.050063 -0.0111142,0.0133976 -0.0258386,0.0233701 -0.0440787,0.0301142 -0.0183346,0.00664961 -0.0409409,0.00997638 -0.0678268,0.00997638l-0.106303 0zm0.106874 -0.0534843c0.0178583,0 0.0315394,-0.00227953 0.0412283,-0.00693307 0.00959449,-0.00465354 0.016622,-0.0119685 0.0210866,-0.0220394 0.0044685,-0.00997638 0.0070315,-0.0228937 0.00779134,-0.0386654 0.000759843,-0.0157677 0.00114173,-0.0347677 0.00114173,-0.0569961l0 -0.16026c0,-0.0178583 -0.00038189,-0.0334409 -0.00114173,-0.0467402 -0.000759843,-0.0133937 -0.00332283,-0.0245079 -0.00788583,-0.033437 -0.00455906,-0.00892913 -0.0117795,-0.0155787 -0.021563,-0.0200433 -0.00987795,-0.00446457 -0.0238425,-0.00664961 -0.0420827,-0.00664961l-0.0342008 0 0 0.391764 0.035626 0z"/>
  <polygon id="1234567891011121314" class="fil3" points="8.08785,3.26444 7.99884,3.26444 7.99884,3.44256 8.12348,3.44256 8.12348,3.49604 7.92759,3.49604 7.92759,2.99731 8.12348,2.99731 8.12348,3.05079 7.99884,3.05079 7.99884,3.21095 8.08785,3.21095 "/>
  <polygon id="123456789101112131415" class="fil3" points="8.32639,2.99731 8.39764,2.99731 8.39764,3.49604 8.32639,3.49604 "/>
  <polygon id="12345678910111213141516" class="fil3" points="8.66762,3.49604 8.54013,3.16431 8.54013,3.49604 8.46889,3.49604 8.46889,2.99731 8.51563,2.99731 8.64701,3.32296 8.64701,2.99731 8.71825,2.99731 8.71825,3.49604 "/>
  <polygon id="1234567891011121314151617" class="fil3" points="8.98539,3.05079 8.86075,3.05079 8.86075,3.21095 8.94976,3.21095 8.94976,3.26444 8.86075,3.26444 8.86075,3.49604 8.7895,3.49604 8.7895,2.99731 8.98539,2.99731 "/>
  <path id="123456789101112131415161718" class="fil3" d="M9.31493 3.33578c0,0.0222283 -0.00227953,0.0434134 -0.00693701,0.0634567 -0.00465354,0.0200472 -0.0124449,0.0375236 -0.0233661,0.0525354 -0.0110197,0.0151024 -0.0255551,0.0270748 -0.0438898,0.0359094 -0.0182402,0.00892913 -0.0410394,0.0133937 -0.0683031,0.0133937 -0.0185236,0 -0.0349567,-0.00199606 -0.0493031,-0.00607874 -0.014248,-0.00408661 -0.0265984,-0.0097874 -0.0371417,-0.0170079 -0.0104528,-0.00721654 -0.0192874,-0.0159567 -0.0265079,-0.0262165 -0.00731102,-0.0101654 -0.0131063,-0.021374 -0.0174764,-0.0336299 -0.00427559,-0.0122559 -0.00740945,-0.0253622 -0.00931102,-0.0392323 -0.00180315,-0.0139646 -0.00275591,-0.028311 -0.00275591,-0.0431299l0 -0.178213c0,-0.0148189 0.000952756,-0.0291654 0.00275591,-0.0431299 0.00190157,-0.0138701 0.00503543,-0.0269803 0.00931102,-0.0392323 0.00437008,-0.0122559 0.0101654,-0.0234646 0.0174764,-0.0336299 0.00722047,-0.0102598 0.0160551,-0.019 0.0265079,-0.0262205 0.0105433,-0.00721654 0.0228937,-0.0129173 0.0371417,-0.0170039 0.0143465,-0.00408268 0.0307795,-0.00607874 0.0493031,-0.00607874 0.0272638,0 0.050063,0.00446457 0.0683031,0.0133937 0.0183346,0.00883465 0.0328701,0.0208071 0.0438898,0.0359094 0.0109213,0.0150079 0.0187126,0.0324882 0.0233661,0.0525315 0.00465748,0.0200472 0.00693701,0.0412323 0.00693701,0.0634606l0 0.178213zm-0.213744 0.0177638c0,0.0133937 0.00123622,0.0255551 0.00361024,0.0364803 0.00237402,0.0109252 0.00636614,0.0203268 0.0119685,0.0281181 0.0056063,0.00779134 0.0129213,0.0138701 0.0220394,0.0181457 0.00902756,0.00427559 0.0202362,0.0063622 0.0336299,0.0063622 0.0133937,0 0.0246024,-0.00208661 0.0336299,-0.0063622 0.00911811,-0.00427559 0.0164331,-0.0103543 0.0220394,-0.0181457 0.00560236,-0.00779134 0.00959449,-0.0171929 0.0119685,-0.0281181 0.00237402,-0.0109252 0.00361024,-0.0230866 0.00361024,-0.0364803l0 -0.21374c0,-0.0133976 -0.00123622,-0.0255551 -0.00361024,-0.0364803 -0.00237402,-0.0109252 -0.00636614,-0.0203307 -0.0119685,-0.0281181 -0.0056063,-0.00779134 -0.0129213,-0.0138701 -0.0220394,-0.0181457 -0.00902756,-0.00427559 -0.0202362,-0.00636614 -0.0336299,-0.00636614 -0.0133937,0 -0.0246024,0.00209055 -0.0336299,0.00636614 -0.00911811,0.00427559 -0.0164331,0.0103543 -0.0220394,0.0181457 -0.00560236,0.0077874 -0.00959449,0.0171929 -0.0119685,0.0281181 -0.00237402,0.0109252 -0.00361024,0.0230827 -0.00361024,0.0364803l0 0.21374z"/>
  <path id="12345678910111213141516171819" class="fil3" d="M9.57674 3.49604l-0.0746693 -0.231602 -0.0534843 0 0 0.231602 -0.071248 0 0 -0.498732 0.0891102 0c0.0311575,0 0.0569961,0.00322835 0.0776102,0.00959449 0.0206142,0.00636614 0.0370472,0.0154843 0.0492087,0.0271693 0.0122559,0.011685 0.0208976,0.0257441 0.0259331,0.0420827 0.00503543,0.0164331 0.00750394,0.0346732 0.00750394,0.0547165 0,0.0122559 -0.000854331,0.0232756 -0.00265748,0.0331575 -0.00180709,0.00978346 -0.0041811,0.0186181 -0.00712598,0.026311 -0.00294488,0.00769685 -0.0063622,0.0144409 -0.0100669,0.0203307 -0.00370866,0.00588976 -0.00750787,0.0108307 -0.0114016,0.0149134 -0.00911811,0.0097874 -0.0195709,0.0169094 -0.031252,0.021185l0.0803661 0.249272 -0.0678268 0zm-0.128154 -0.285087l0.0178622 0c0.0132992,0 0.0254567,-0.00123228 0.0363819,-0.00379921 0.0110197,-0.0024685 0.0203307,-0.00674409 0.0281181,-0.0129173 0.00779134,-0.00608268 0.0138701,-0.014252 0.0181457,-0.0246063 0.00427559,-0.0102598 0.00636614,-0.0231772 0.00636614,-0.0387598 0,-0.0155787 -0.00209055,-0.0284961 -0.00636614,-0.0387559 -0.00427559,-0.0103543 -0.0103543,-0.0185236 -0.0181457,-0.0246063 -0.0077874,-0.00617323 -0.0170984,-0.0104488 -0.0281181,-0.0129173 -0.0109252,-0.00256693 -0.0230827,-0.00379921 -0.0363819,-0.00379921l-0.0178622 0 0 0.160161z"/>
  <polygon id="1234567891011121314151617181920" class="fil3" points="9.84045,3.49604 9.7692,3.10256 9.7692,3.49604 9.69795,3.49604 9.69795,2.99731 9.79457,2.99731 9.86543,3.37948 9.9363,2.99731 10.0363,2.99731 10.0363,3.49604 9.96509,3.49604 9.96509,3.10247 9.89384,3.49604 "/>
  <path id="123456789101112131415161718192021" class="fil3" d="M10.186 3.37141l-0.0249843 0.124634 -0.0711535 0 0.104402 -0.498732 0.0735276 0 0.107063 0.498732 -0.068685 0 -0.0267874 -0.124634 -0.0933819 0zm0.0819803 -0.0534843l-0.035622 -0.213744 -0.035622 0.213744 0.0712441 0z"/>
  <polygon id="12345678910111213141516171819202122" class="fil3" points="10.6242,2.99731 10.6242,3.05573 10.5352,3.05573 10.5352,3.49604 10.4639,3.49604 10.4639,3.05573 10.3749,3.05573 10.3749,2.99731 "/>
  <polygon id="1234567891011121314151617181920212223" class="fil3" points="10.6777,2.99731 10.7489,2.99731 10.7489,3.49604 10.6777,3.49604 "/>
  <path id="123456789101112131415161718192021222324" class="fil3" d="M11.0962 3.31802l0 0.0177638c0,0.0223228 -0.00237402,0.0434134 -0.00722047,0.0634567 -0.00484646,0.0200472 -0.0128228,0.0375236 -0.0239409,0.0526299 -0.0111142,0.0150079 -0.0258386,0.0269803 -0.0439803,0.035815 -0.0181457,0.00892913 -0.0406614,0.0133937 -0.0673543,0.0133937 -0.0266929,0 -0.0492087,-0.00455906 -0.0673543,-0.0136811 -0.0181417,-0.00902362 -0.0328661,-0.021752 -0.0439803,-0.0379961 -0.0111142,-0.0161496 -0.0190945,-0.0355315 -0.0239409,-0.0579488 -0.00484252,-0.0225157 -0.00722047,-0.0471181 -0.00722047,-0.073815l0 -0.142209c0,-0.0266929 0.00237795,-0.0512992 0.00722047,-0.073811 0.00484646,-0.0224213 0.0128268,-0.0417047 0.0239409,-0.0578543 0.0111142,-0.0161496 0.0258386,-0.0287835 0.0439803,-0.0378071 0.0181457,-0.00912205 0.0406614,-0.0136811 0.0673543,-0.0136811 0.0252677,0 0.0469291,0.00398819 0.0649764,0.012063 0.0181457,0.0080748 0.0328701,0.0193819 0.0442717,0.0338189 0.0113976,0.0145354 0.0197559,0.0319213 0.0251732,0.052248 0.00541339,0.0202362 0.0080748,0.0426535 0.0080748,0.0671654l-0.071248 0c0,-0.0178622 -0.00123622,-0.0334409 -0.00361024,-0.0467402 -0.00237402,-0.0133937 -0.00636614,-0.0245079 -0.0119685,-0.033437 -0.0056063,-0.00892913 -0.0129213,-0.0155787 -0.0220394,-0.0200433 -0.00902756,-0.0044685 -0.0202362,-0.00665354 -0.0336299,-0.00665354 -0.0133937,0 -0.0246024,0.00218504 -0.0336299,0.00665354 -0.00911811,0.00446457 -0.0164331,0.0112087 -0.0220394,0.0200433 -0.00560236,0.00892913 -0.00959449,0.0200433 -0.0119685,0.033437 -0.00237402,0.0133937 -0.00361024,0.0289764 -0.00361024,0.0467402l0 0.178213c0,0.0132992 0.00123622,0.0264094 0.00361024,0.0392323 0.00237402,0.0128268 0.00636614,0.0242244 0.0119685,0.0342008 0.0056063,0.0100709 0.0129213,0.0181457 0.0220394,0.0242244 0.00902756,0.00617323 0.0202362,0.0092126 0.0336299,0.0092126 0.0133937,0 0.0246024,-0.00303937 0.0336299,-0.0092126 0.00911811,-0.00607874 0.0164331,-0.0141535 0.0220394,-0.0241299 0.00560236,-0.0100709 0.00959449,-0.0214685 0.0119685,-0.0342953 0.00237402,-0.0127283 0.00361024,-0.0258386 0.00361024,-0.0392323l0 -0.0177638 0.071248 0z"/>
  <path id="12345678910111213141516171819202122232425" class="fil3" d="M11.237 3.37141l-0.0249843 0.124634 -0.0711535 0 0.104402 -0.498732 0.0735276 0 0.107063 0.498732 -0.068685 0 -0.0267874 -0.124634 -0.0933819 0zm0.0819803 -0.0534843l-0.035622 -0.213744 -0.035622 0.213744 0.0712441 0z"/>
  <path id="1234567891011121314151617181920212223242526" class="fil3" d="M3.61921 4.24232c-0.0177638,0 -0.033437,-0.00209055 -0.0470236,-0.00627165 -0.0134882,-0.00417717 -0.0252677,-0.00968898 -0.0352441,-0.0167165 -0.00997244,-0.00693701 -0.0184291,-0.0148228 -0.0252677,-0.0236575 -0.00693307,-0.00873622 -0.0125394,-0.0178583 -0.0170039,-0.0270709 -0.0103543,-0.0215669 -0.0163386,-0.0461693 -0.0177638,-0.073815l0.0709606 -0.0177638c0.000759843,0.0200433 0.00370472,0.037811 0.00892913,0.0533898 0.00218504,0.00674409 0.00503543,0.0132992 0.00845669,0.0196614 0.00341732,0.00636614 0.00769291,0.0120669 0.0127283,0.0171024 0.00503543,0.00503543 0.0109252,0.00902362 0.0176693,0.0121575 0.00674409,0.00303937 0.0146299,0.00455906 0.0235591,0.00455906 0.035626,0 0.0534843,-0.0178583 0.0534843,-0.0534803 0,-0.00883465 -0.00114173,-0.0171969 -0.00332677,-0.0248898 -0.00218504,-0.00769685 -0.00550787,-0.0151063 -0.00997244,-0.0222283 -0.00446457,-0.00722047 -0.00997638,-0.0141575 -0.016626,-0.0209016 -0.00674409,-0.00683858 -0.014437,-0.0137756 -0.0233701,-0.0210866l-0.0890118 -0.071248c-0.00911811,-0.00722047 -0.0170984,-0.0153898 -0.0238425,-0.0246063 -0.00674409,-0.00911811 -0.0123504,-0.0189055 -0.016815,-0.0290669 -0.00446457,-0.0101654 -0.0077874,-0.0206142 -0.00987795,-0.0311614 -0.00218504,-0.0106378 -0.00323228,-0.0210866 -0.00323228,-0.0314409 0,-0.0159606 0.00266142,-0.0312559 0.0080748,-0.0457913 0.00532283,-0.0146299 0.0132992,-0.0273583 0.023752,-0.0384724 0.0104488,-0.0110197 0.0234606,-0.0197598 0.0390433,-0.0262205 0.0155787,-0.00655512 0.0335315,-0.00978346 0.0538622,-0.00978346 0.0178583,0 0.0335315,0.00190157 0.0471181,0.0056063 0.0134882,0.00370472 0.0252677,0.00854724 0.0353386,0.0147244 0.00997638,0.00607874 0.0184291,0.0131063 0.0253622,0.0208976 0.00684252,0.00779134 0.0125433,0.0156732 0.0169094,0.0236535 0.0104528,0.0190945 0.0163425,0.0406614 0.0178622,0.0647874l-0.071248 0.0178622c-0.000759843,-0.0167205 -0.00370472,-0.0315394 -0.00892913,-0.0445551 -0.00218504,-0.0056063 -0.00503543,-0.0110197 -0.00845669,-0.0162441 -0.00341732,-0.0053189 -0.00769291,-0.0100709 -0.0127283,-0.014248 -0.00503543,-0.0041811 -0.0109252,-0.00760236 -0.0176693,-0.0101654 -0.00674409,-0.00256693 -0.0146299,-0.00389764 -0.0235591,-0.00389764 -0.00931102,0 -0.0172913,0.0014252 -0.0241299,0.00427559 -0.00674409,0.00294488 -0.0123504,0.00674409 -0.0167205,0.0115906 -0.00427165,0.00484646 -0.00750394,0.0104488 -0.00959449,0.0170039 -0.00199213,0.00646063 -0.00303937,0.0133937 -0.00303937,0.0206142 0,0.0122559 0.00285039,0.0247953 0.00864567,0.0376181 0.00579528,0.0129213 0.0148189,0.0241299 0.0271693,0.0338189l0.0890118 0.071248c0.0113031,0.00912205 0.021374,0.019 0.0302087,0.0299252 0.00883465,0.0108307 0.0162441,0.0221339 0.0224173,0.0340079 0.00608268,0.011874 0.0107362,0.0240354 0.0138701,0.0365748 0.0031378,0.0125394 0.00475197,0.0248898 0.00475197,0.0371417 0,0.0153898 -0.00247244,0.0300197 -0.00750394,0.0440787 -0.00503543,0.0139646 -0.0127323,0.0264094 -0.0229921,0.0371457 -0.0102598,0.0107323 -0.0232717,0.019378 -0.0388543,0.0257441 -0.0155787,0.0063622 -0.0340079,0.00959449 -0.0553819,0.00959449z"/>
  <polygon id="123456789101112131415161718192021222324252627" class="fil3" points="3.80635,3.73855 3.8776,3.73855 3.8776,4.23728 3.80635,4.23728 "/>
  <path id="12345678910111213141516171819202122232425262728" class="fil3" d="M4.37434 4.05926l0 0.0177638c0,0.0223228 -0.00237402,0.0434134 -0.00722047,0.0634567 -0.00484646,0.0200472 -0.0128228,0.0375236 -0.0239409,0.0526299 -0.0111142,0.0150079 -0.0258386,0.0269803 -0.0439803,0.035815 -0.0181457,0.00892913 -0.0406614,0.0133937 -0.0673543,0.0133937 -0.0266929,0 -0.0492087,-0.00455906 -0.0673543,-0.0136811 -0.0181417,-0.00902362 -0.0328661,-0.021752 -0.0439803,-0.0379961 -0.0111142,-0.0161496 -0.0190945,-0.0355315 -0.0239409,-0.0579488 -0.00484252,-0.0225157 -0.00722047,-0.0471181 -0.00722047,-0.073815l0 -0.142209c0,-0.0266929 0.00237795,-0.0512992 0.00722047,-0.073811 0.00484646,-0.0224213 0.0128268,-0.0417047 0.0239409,-0.0578543 0.0111142,-0.0161496 0.0258386,-0.0287835 0.0439803,-0.0378071 0.0181457,-0.00912205 0.0406614,-0.0136811 0.0673543,-0.0136811 0.0252677,0 0.0469291,0.00398819 0.0649764,0.012063 0.0181457,0.0080748 0.0328701,0.0193819 0.0442717,0.0338189 0.0113976,0.0145354 0.0197559,0.0319213 0.0251732,0.052248 0.00541339,0.0202362 0.0080748,0.0426535 0.0080748,0.0671654l-0.071248 0c0,-0.0178622 -0.00123622,-0.0334409 -0.00361024,-0.0467402 -0.00237402,-0.0133937 -0.00636614,-0.0245079 -0.0119685,-0.033437 -0.0056063,-0.00892913 -0.0129213,-0.0155787 -0.0220394,-0.0200433 -0.00902756,-0.0044685 -0.0202362,-0.00665354 -0.0336299,-0.00665354 -0.0133937,0 -0.0246024,0.00218504 -0.0336299,0.00665354 -0.00911811,0.00446457 -0.0164331,0.0112087 -0.0220394,0.0200433 -0.00560236,0.00892913 -0.00959449,0.0200433 -0.0119685,0.033437 -0.00237402,0.0133937 -0.00361024,0.0289764 -0.00361024,0.0467402l0 0.178213c0,0.0132992 0.00123622,0.0264094 0.00361024,0.0392323 0.00237402,0.0128268 0.00636614,0.0242244 0.0119685,0.0342008 0.0056063,0.0100709 0.0129213,0.0181457 0.0220394,0.0242244 0.00902756,0.00617323 0.0202362,0.0092126 0.0336299,0.0092126 0.0133937,0 0.0246024,-0.00303937 0.0336299,-0.0092126 0.00911811,-0.00607874 0.0164331,-0.0141535 0.0220394,-0.0241299 0.00560236,-0.0100709 0.00959449,-0.0214685 0.0119685,-0.0342953 0.00237402,-0.0127283 0.00361024,-0.0258386 0.00361024,-0.0392323l0 -0.0177638 0.071248 0z"/>
  <polygon id="1234567891011121314151617181920212223242526272829" class="fil3" points="4.43675,3.73855 4.508,3.73855 4.508,4.23728 4.43675,4.23728 "/>
  <path id="123456789101112131415161718192021222324252627282930" class="fil3" d="M4.68612 3.73855c0.0207087,0 0.0389488,0.00189764 0.0545276,0.00560236 0.0155787,0.00370866 0.0289724,0.00864567 0.040185,0.0148228 0.0112087,0.00626772 0.0205157,0.0134882 0.0279291,0.0218465 0.00750394,0.0083622 0.0132992,0.0171024 0.0175709,0.026315 0.00427559,0.00921654 0.00731496,0.0186181 0.00902756,0.0282126 0.00180315,0.00969291 0.00265748,0.019 0.00265748,0.0278346 0,0.0133976 -0.0011378,0.0256496 -0.00351181,0.0367638 -0.00228346,0.0111142 -0.00646063,0.0210906 -0.0126378,0.0300197 -0.00607874,0.00892913 -0.0143425,0.0167205 -0.0247913,0.0233701 -0.0103543,0.00664961 -0.0236575,0.0122559 -0.0397087,0.0167205 0.0132992,0.00446457 0.0254567,0.00978346 0.0363819,0.0161496 0.0110197,0.00626772 0.0203307,0.014248 0.0281181,0.023748 0.00779134,0.00959449 0.0138701,0.021185 0.0181457,0.0349567 0.00427559,0.0137756 0.00636614,0.0303071 0.00636614,0.0497795 0,0.0209961 -0.00323228,0.040185 -0.0097874,0.0576654 -0.00645669,0.0174764 -0.0157677,0.0324882 -0.0280236,0.0449331 -0.012252,0.0125394 -0.0271693,0.0223228 -0.0448386,0.0294488 -0.0175748,0.00702756 -0.0375236,0.0105433 -0.0598465,0.0105433l-0.124638 0 0 -0.498732 0.106874 0zm-0.035626 0.445248l0.035626 0c0.0132992,0 0.0254567,-0.00133071 0.0364764,-0.0038937 0.0109252,-0.00256693 0.0202362,-0.00722047 0.0280236,-0.0139646 0.00779134,-0.00664961 0.0138701,-0.0157677 0.0181457,-0.0272638 0.00427559,-0.0114961 0.00636614,-0.026126 0.00636614,-0.0439843 0,-0.0177638 -0.00209055,-0.0323937 -0.00636614,-0.0438898 -0.00427559,-0.0114921 -0.0103543,-0.0206142 -0.0181457,-0.0273583 -0.0077874,-0.00664961 -0.0170984,-0.0113031 -0.0280236,-0.0138701 -0.0110197,-0.00256299 -0.0231772,-0.0038937 -0.0364764,-0.0038937l-0.035626 0 0 0.178118zm0 -0.231602l0.035626 0c0.00588976,0 0.012252,-0.000377953 0.0189016,-0.0011378 0.00664961,-0.000759843 0.0133031,-0.00218504 0.0198543,-0.00427559 0.00664961,-0.00218504 0.0130157,-0.00522441 0.0190945,-0.00921654 0.00608268,-0.00398819 0.0114961,-0.0092126 0.0159606,-0.0158622 0.00455906,-0.00655512 0.00826378,-0.0146299 0.0110197,-0.0241299 0.00275591,-0.00959449 0.0041811,-0.0209921 0.0041811,-0.0343898 0,-0.0177638 -0.00313386,-0.0314409 -0.0095,-0.0411339 -0.00627165,-0.00959449 -0.0150118,-0.016622 -0.026126,-0.0210866 -0.0111142,-0.00446457 -0.0243189,-0.0070315 -0.0395157,-0.00779134 -0.0152008,-0.000759843 -0.0317323,-0.0011378 -0.0494961,-0.0011378l0 0.160161z"/>
  <polygon id="12345678910111213141516171819202122232425262728293031" class="fil3" points="5.06905,4.00568 4.98004,4.00568 4.98004,4.1838 5.10468,4.1838 5.10468,4.23728 4.90879,4.23728 4.90879,3.73855 5.10468,3.73855 5.10468,3.79204 4.98004,3.79204 4.98004,3.9522 5.06905,3.9522 "/>
  <path id="1234567891011121314151617181920212223242526272829303132" class="fil3" d="M5.35756 4.23728l-0.0746693 -0.231602 -0.0534843 0 0 0.231602 -0.071248 0 0 -0.498732 0.0891102 0c0.0311575,0 0.0569961,0.00322835 0.0776102,0.00959449 0.0206142,0.00636614 0.0370472,0.0154843 0.0492087,0.0271693 0.0122559,0.011685 0.0208976,0.0257441 0.0259331,0.0420827 0.00503543,0.0164331 0.00750394,0.0346732 0.00750394,0.0547165 0,0.0122559 -0.000854331,0.0232756 -0.00265748,0.0331575 -0.00180709,0.00978346 -0.0041811,0.0186181 -0.00712598,0.026311 -0.00294488,0.00769685 -0.0063622,0.0144409 -0.0100669,0.0203307 -0.00370866,0.00588976 -0.00750787,0.0108307 -0.0114016,0.0149134 -0.00911811,0.0097874 -0.0195709,0.0169094 -0.031252,0.021185l0.0803661 0.249272 -0.0678268 0zm-0.128154 -0.285087l0.0178622 0c0.0132992,0 0.0254567,-0.00123228 0.0363819,-0.00379921 0.0110197,-0.0024685 0.0203307,-0.00674409 0.0281181,-0.0129173 0.00779134,-0.00608268 0.0138701,-0.014252 0.0181457,-0.0246063 0.00427559,-0.0102598 0.00636614,-0.0231772 0.00636614,-0.0387598 0,-0.0155787 -0.00209055,-0.0284961 -0.00636614,-0.0387559 -0.00427559,-0.0103543 -0.0103543,-0.0185236 -0.0181457,-0.0246063 -0.0077874,-0.00617323 -0.0170984,-0.0104488 -0.0281181,-0.0129173 -0.0109252,-0.00256693 -0.0230827,-0.00379921 -0.0363819,-0.00379921l-0.0178622 0 0 0.160161z"/>
  <polygon id="123456789101112131415161718192021222324252627282930313233" class="fil3" points="5.67751,4.23728 5.55002,3.90556 5.55002,4.23728 5.47877,4.23728 5.47877,3.73855 5.52551,3.73855 5.65689,4.0642 5.65689,3.73855 5.72814,3.73855 5.72814,4.23728 "/>
  <polygon id="12345678910111213141516171819202122232425262728293031323334" class="fil3" points="5.95965,4.00568 5.87063,4.00568 5.87063,4.1838 5.99527,4.1838 5.99527,4.23728 5.79939,4.23728 5.79939,3.73855 5.99527,3.73855 5.99527,3.79204 5.87063,3.79204 5.87063,3.9522 5.95965,3.9522 "/>
  <polygon id="1234567891011121314151617181920212223242526272829303132333435" class="fil3" points="6.28026,3.73855 6.28026,3.79697 6.19125,3.79697 6.19125,4.23728 6.12,4.23728 6.12,3.79697 6.03099,3.79697 6.03099,3.73855 "/>
  <polygon id="123456789101112131415161718192021222324252627282930313233343536" class="fil3" points="6.33374,3.73855 6.40499,3.73855 6.40499,4.23728 6.33374,4.23728 "/>
  <path id="12345678910111213141516171819202122232425262728293031323334353637" class="fil3" d="M6.7523 4.05926l0 0.0177638c0,0.0223228 -0.00237402,0.0434134 -0.00722047,0.0634567 -0.00484646,0.0200472 -0.0128228,0.0375236 -0.0239409,0.0526299 -0.0111142,0.0150079 -0.0258386,0.0269803 -0.0439803,0.035815 -0.0181457,0.00892913 -0.0406614,0.0133937 -0.0673543,0.0133937 -0.0266929,0 -0.0492087,-0.00455906 -0.0673543,-0.0136811 -0.0181417,-0.00902362 -0.0328661,-0.021752 -0.0439803,-0.0379961 -0.0111142,-0.0161496 -0.0190945,-0.0355315 -0.0239409,-0.0579488 -0.00484252,-0.0225157 -0.00722047,-0.0471181 -0.00722047,-0.073815l0 -0.142209c0,-0.0266929 0.00237795,-0.0512992 0.00722047,-0.073811 0.00484646,-0.0224213 0.0128268,-0.0417047 0.0239409,-0.0578543 0.0111142,-0.0161496 0.0258386,-0.0287835 0.0439803,-0.0378071 0.0181457,-0.00912205 0.0406614,-0.0136811 0.0673543,-0.0136811 0.0252677,0 0.0469291,0.00398819 0.0649764,0.012063 0.0181457,0.0080748 0.0328701,0.0193819 0.0442717,0.0338189 0.0113976,0.0145354 0.0197559,0.0319213 0.0251732,0.052248 0.00541339,0.0202362 0.0080748,0.0426535 0.0080748,0.0671654l-0.071248 0c0,-0.0178622 -0.00123622,-0.0334409 -0.00361024,-0.0467402 -0.00237402,-0.0133937 -0.00636614,-0.0245079 -0.0119685,-0.033437 -0.0056063,-0.00892913 -0.0129213,-0.0155787 -0.0220394,-0.0200433 -0.00902756,-0.0044685 -0.0202362,-0.00665354 -0.0336299,-0.00665354 -0.0133937,0 -0.0246024,0.00218504 -0.0336299,0.00665354 -0.00911811,0.00446457 -0.0164331,0.0112087 -0.0220394,0.0200433 -0.00560236,0.00892913 -0.00959449,0.0200433 -0.0119685,0.033437 -0.00237402,0.0133937 -0.00361024,0.0289764 -0.00361024,0.0467402l0 0.178213c0,0.0132992 0.00123622,0.0264094 0.00361024,0.0392323 0.00237402,0.0128268 0.00636614,0.0242244 0.0119685,0.0342008 0.0056063,0.0100709 0.0129213,0.0181457 0.0220394,0.0242244 0.00902756,0.00617323 0.0202362,0.0092126 0.0336299,0.0092126 0.0133937,0 0.0246024,-0.00303937 0.0336299,-0.0092126 0.00911811,-0.00607874 0.0164331,-0.0141535 0.0220394,-0.0241299 0.00560236,-0.0100709 0.00959449,-0.0214685 0.0119685,-0.0342953 0.00237402,-0.0127283 0.00361024,-0.0258386 0.00361024,-0.0392323l0 -0.0177638 0.071248 0z"/>
  <path id="1234567891011121314151617181920212223242526272829303132333435363738" class="fil3" d="M6.89308 4.11265l-0.0249843 0.124634 -0.0711535 0 0.104402 -0.498732 0.0735276 0 0.107063 0.498732 -0.068685 0 -0.0267874 -0.124634 -0.0933819 0zm0.0819803 -0.0534843l-0.035622 -0.213744 -0.035622 0.213744 0.0712441 0z"/>
  <polygon id="123456789101112131415161718192021222324252627282930313233343536373839" class="fil3" points="7.44501,4.00568 7.356,4.00568 7.356,4.1838 7.48064,4.1838 7.48064,4.23728 7.28475,4.23728 7.28475,3.73855 7.48064,3.73855 7.48064,3.79204 7.356,3.79204 7.356,3.9522 7.44501,3.9522 "/>
  <path id="12345678910111213141516171819202122232425262728293031323334353637383940" class="fil3" d="M7.81018 4.05926l0 0.0177638c0,0.0223228 -0.00237402,0.0434134 -0.00722047,0.0634567 -0.00484646,0.0200472 -0.0128228,0.0375236 -0.0239409,0.0526299 -0.0111142,0.0150079 -0.0258386,0.0269803 -0.0439803,0.035815 -0.0181457,0.00892913 -0.0406614,0.0133937 -0.0673543,0.0133937 -0.0266929,0 -0.0492087,-0.00455906 -0.0673543,-0.0136811 -0.0181417,-0.00902362 -0.0328661,-0.021752 -0.0439803,-0.0379961 -0.0111142,-0.0161496 -0.0190945,-0.0355315 -0.0239409,-0.0579488 -0.00484252,-0.0225157 -0.00722047,-0.0471181 -0.00722047,-0.073815l0 -0.142209c0,-0.0266929 0.00237795,-0.0512992 0.00722047,-0.073811 0.00484646,-0.0224213 0.0128268,-0.0417047 0.0239409,-0.0578543 0.0111142,-0.0161496 0.0258386,-0.0287835 0.0439803,-0.0378071 0.0181457,-0.00912205 0.0406614,-0.0136811 0.0673543,-0.0136811 0.0252677,0 0.0469291,0.00398819 0.0649764,0.012063 0.0181457,0.0080748 0.0328701,0.0193819 0.0442717,0.0338189 0.0113976,0.0145354 0.0197559,0.0319213 0.0251732,0.052248 0.00541339,0.0202362 0.0080748,0.0426535 0.0080748,0.0671654l-0.071248 0c0,-0.0178622 -0.00123622,-0.0334409 -0.00361024,-0.0467402 -0.00237402,-0.0133937 -0.00636614,-0.0245079 -0.0119685,-0.033437 -0.0056063,-0.00892913 -0.0129213,-0.0155787 -0.0220394,-0.0200433 -0.00902756,-0.0044685 -0.0202362,-0.00665354 -0.0336299,-0.00665354 -0.0133937,0 -0.0246024,0.00218504 -0.0336299,0.00665354 -0.00911811,0.00446457 -0.0164331,0.0112087 -0.0220394,0.0200433 -0.00560236,0.00892913 -0.00959449,0.0200433 -0.0119685,0.033437 -0.00237402,0.0133937 -0.00361024,0.0289764 -0.00361024,0.0467402l0 0.178213c0,0.0132992 0.00123622,0.0264094 0.00361024,0.0392323 0.00237402,0.0128268 0.00636614,0.0242244 0.0119685,0.0342008 0.0056063,0.0100709 0.0129213,0.0181457 0.0220394,0.0242244 0.00902756,0.00617323 0.0202362,0.0092126 0.0336299,0.0092126 0.0133937,0 0.0246024,-0.00303937 0.0336299,-0.0092126 0.00911811,-0.00607874 0.0164331,-0.0141535 0.0220394,-0.0241299 0.00560236,-0.0100709 0.00959449,-0.0214685 0.0119685,-0.0342953 0.00237402,-0.0127283 0.00361024,-0.0258386 0.00361024,-0.0392323l0 -0.0177638 0.071248 0z"/>
  <path id="1234567891011121314151617181920212223242526272829303132333435363738394041" class="fil3" d="M8.14865 4.07702c0,0.0222283 -0.00227953,0.0434134 -0.00693701,0.0634567 -0.00465354,0.0200472 -0.0124449,0.0375236 -0.0233661,0.0525354 -0.0110197,0.0151024 -0.0255551,0.0270748 -0.0438898,0.0359094 -0.0182402,0.00892913 -0.0410394,0.0133937 -0.0683031,0.0133937 -0.0185236,0 -0.0349567,-0.00199606 -0.0493031,-0.00607874 -0.014248,-0.00408661 -0.0265984,-0.0097874 -0.0371417,-0.0170079 -0.0104528,-0.00721654 -0.0192874,-0.0159567 -0.0265079,-0.0262165 -0.00731102,-0.0101654 -0.0131063,-0.021374 -0.0174764,-0.0336299 -0.00427559,-0.0122559 -0.00740945,-0.0253622 -0.00931102,-0.0392323 -0.00180315,-0.0139646 -0.00275591,-0.028311 -0.00275591,-0.0431299l0 -0.178213c0,-0.0148189 0.000952756,-0.0291654 0.00275591,-0.0431299 0.00190157,-0.0138701 0.00503543,-0.0269803 0.00931102,-0.0392323 0.00437008,-0.0122559 0.0101654,-0.0234646 0.0174764,-0.0336299 0.00722047,-0.0102598 0.0160551,-0.019 0.0265079,-0.0262205 0.0105433,-0.00721654 0.0228937,-0.0129173 0.0371417,-0.0170039 0.0143465,-0.00408268 0.0307795,-0.00607874 0.0493031,-0.00607874 0.0272638,0 0.050063,0.00446457 0.0683031,0.0133937 0.0183346,0.00883465 0.0328701,0.0208071 0.0438898,0.0359094 0.0109213,0.0150079 0.0187126,0.0324882 0.0233661,0.0525315 0.00465748,0.0200472 0.00693701,0.0412323 0.00693701,0.0634606l0 0.178213zm-0.213744 0.0177638c0,0.0133937 0.00123622,0.0255551 0.00361024,0.0364803 0.00237402,0.0109252 0.00636614,0.0203268 0.0119685,0.0281181 0.0056063,0.00779134 0.0129213,0.0138701 0.0220394,0.0181457 0.00902756,0.00427559 0.0202362,0.0063622 0.0336299,0.0063622 0.0133937,0 0.0246024,-0.00208661 0.0336299,-0.0063622 0.00911811,-0.00427559 0.0164331,-0.0103543 0.0220394,-0.0181457 0.00560236,-0.00779134 0.00959449,-0.0171929 0.0119685,-0.0281181 0.00237402,-0.0109252 0.00361024,-0.0230866 0.00361024,-0.0364803l0 -0.21374c0,-0.0133976 -0.00123622,-0.0255551 -0.00361024,-0.0364803 -0.00237402,-0.0109252 -0.00636614,-0.0203307 -0.0119685,-0.0281181 -0.0056063,-0.00779134 -0.0129213,-0.0138701 -0.0220394,-0.0181457 -0.00902756,-0.00427559 -0.0202362,-0.00636614 -0.0336299,-0.00636614 -0.0133937,0 -0.0246024,0.00209055 -0.0336299,0.00636614 -0.00911811,0.00427559 -0.0164331,0.0103543 -0.0220394,0.0181457 -0.00560236,0.0077874 -0.00959449,0.0171929 -0.0119685,0.0281181 -0.00237402,0.0109252 -0.00361024,0.0230827 -0.00361024,0.0364803l0 0.21374z"/>
  <polygon id="123456789101112131415161718192021222324252627282930313233343536373839404142" class="fil3" points="8.4098,4.23728 8.28231,3.90556 8.28231,4.23728 8.21106,4.23728 8.21106,3.73855 8.2578,3.73855 8.38919,4.0642 8.38919,3.73855 8.46043,3.73855 8.46043,4.23728 "/>
  <path id="12345678910111213141516171819202122232425262728293031323334353637383940414243" class="fil3" d="M8.80774 4.07702c0,0.0222283 -0.00227953,0.0434134 -0.00693701,0.0634567 -0.00465354,0.0200472 -0.0124449,0.0375236 -0.0233661,0.0525354 -0.0110197,0.0151024 -0.0255551,0.0270748 -0.0438898,0.0359094 -0.0182402,0.00892913 -0.0410394,0.0133937 -0.0683031,0.0133937 -0.0185236,0 -0.0349567,-0.00199606 -0.0493031,-0.00607874 -0.014248,-0.00408661 -0.0265984,-0.0097874 -0.0371417,-0.0170079 -0.0104528,-0.00721654 -0.0192874,-0.0159567 -0.0265079,-0.0262165 -0.00731102,-0.0101654 -0.0131063,-0.021374 -0.0174764,-0.0336299 -0.00427559,-0.0122559 -0.00740945,-0.0253622 -0.00931102,-0.0392323 -0.00180315,-0.0139646 -0.00275591,-0.028311 -0.00275591,-0.0431299l0 -0.178213c0,-0.0148189 0.000952756,-0.0291654 0.00275591,-0.0431299 0.00190157,-0.0138701 0.00503543,-0.0269803 0.00931102,-0.0392323 0.00437008,-0.0122559 0.0101654,-0.0234646 0.0174764,-0.0336299 0.00722047,-0.0102598 0.0160551,-0.019 0.0265079,-0.0262205 0.0105433,-0.00721654 0.0228937,-0.0129173 0.0371417,-0.0170039 0.0143465,-0.00408268 0.0307795,-0.00607874 0.0493031,-0.00607874 0.0272638,0 0.050063,0.00446457 0.0683031,0.0133937 0.0183346,0.00883465 0.0328701,0.0208071 0.0438898,0.0359094 0.0109213,0.0150079 0.0187126,0.0324882 0.0233661,0.0525315 0.00465748,0.0200472 0.00693701,0.0412323 0.00693701,0.0634606l0 0.178213zm-0.213744 0.0177638c0,0.0133937 0.00123622,0.0255551 0.00361024,0.0364803 0.00237402,0.0109252 0.00636614,0.0203268 0.0119685,0.0281181 0.0056063,0.00779134 0.0129213,0.0138701 0.0220394,0.0181457 0.00902756,0.00427559 0.0202362,0.0063622 0.0336299,0.0063622 0.0133937,0 0.0246024,-0.00208661 0.0336299,-0.0063622 0.00911811,-0.00427559 0.0164331,-0.0103543 0.0220394,-0.0181457 0.00560236,-0.00779134 0.00959449,-0.0171929 0.0119685,-0.0281181 0.00237402,-0.0109252 0.00361024,-0.0230866 0.00361024,-0.0364803l0 -0.21374c0,-0.0133976 -0.00123622,-0.0255551 -0.00361024,-0.0364803 -0.00237402,-0.0109252 -0.00636614,-0.0203307 -0.0119685,-0.0281181 -0.0056063,-0.00779134 -0.0129213,-0.0138701 -0.0220394,-0.0181457 -0.00902756,-0.00427559 -0.0202362,-0.00636614 -0.0336299,-0.00636614 -0.0133937,0 -0.0246024,0.00209055 -0.0336299,0.00636614 -0.00911811,0.00427559 -0.0164331,0.0103543 -0.0220394,0.0181457 -0.00560236,0.0077874 -0.00959449,0.0171929 -0.0119685,0.0281181 -0.00237402,0.0109252 -0.00361024,0.0230827 -0.00361024,0.0364803l0 0.21374z"/>
  <polygon id="1234567891011121314151617181920212223242526272829303132333435363738394041424344" class="fil3" points="9.01265,4.23728 8.9414,3.84381 8.9414,4.23728 8.87015,4.23728 8.87015,3.73855 8.96676,3.73855 9.03763,4.12072 9.1085,3.73855 9.20853,3.73855 9.20853,4.23728 9.13728,4.23728 9.13728,3.84371 9.06604,4.23728 "/>
  <polygon id="123456789101112131415161718192021222324252627282930313233343536373839404142434445" class="fil3" points="9.27987,3.73855 9.35112,3.73855 9.35112,4.23728 9.27987,4.23728 "/>
  <path id="12345678910111213141516171819202122232425262728293031323334353637383940414243444546" class="fil3" d="M9.69843 4.05926l0 0.0177638c0,0.0223228 -0.00237402,0.0434134 -0.00722047,0.0634567 -0.00484646,0.0200472 -0.0128228,0.0375236 -0.0239409,0.0526299 -0.0111142,0.0150079 -0.0258386,0.0269803 -0.0439803,0.035815 -0.0181457,0.00892913 -0.0406614,0.0133937 -0.0673543,0.0133937 -0.0266929,0 -0.0492087,-0.00455906 -0.0673543,-0.0136811 -0.0181417,-0.00902362 -0.0328661,-0.021752 -0.0439803,-0.0379961 -0.0111142,-0.0161496 -0.0190945,-0.0355315 -0.0239409,-0.0579488 -0.00484252,-0.0225157 -0.00722047,-0.0471181 -0.00722047,-0.073815l0 -0.142209c0,-0.0266929 0.00237795,-0.0512992 0.00722047,-0.073811 0.00484646,-0.0224213 0.0128268,-0.0417047 0.0239409,-0.0578543 0.0111142,-0.0161496 0.0258386,-0.0287835 0.0439803,-0.0378071 0.0181457,-0.00912205 0.0406614,-0.0136811 0.0673543,-0.0136811 0.0252677,0 0.0469291,0.00398819 0.0649764,0.012063 0.0181457,0.0080748 0.0328701,0.0193819 0.0442717,0.0338189 0.0113976,0.0145354 0.0197559,0.0319213 0.0251732,0.052248 0.00541339,0.0202362 0.0080748,0.0426535 0.0080748,0.0671654l-0.071248 0c0,-0.0178622 -0.00123622,-0.0334409 -0.00361024,-0.0467402 -0.00237402,-0.0133937 -0.00636614,-0.0245079 -0.0119685,-0.033437 -0.0056063,-0.00892913 -0.0129213,-0.0155787 -0.0220394,-0.0200433 -0.00902756,-0.0044685 -0.0202362,-0.00665354 -0.0336299,-0.00665354 -0.0133937,0 -0.0246024,0.00218504 -0.0336299,0.00665354 -0.00911811,0.00446457 -0.0164331,0.0112087 -0.0220394,0.0200433 -0.00560236,0.00892913 -0.00959449,0.0200433 -0.0119685,0.033437 -0.00237402,0.0133937 -0.00361024,0.0289764 -0.00361024,0.0467402l0 0.178213c0,0.0132992 0.00123622,0.0264094 0.00361024,0.0392323 0.00237402,0.0128268 0.00636614,0.0242244 0.0119685,0.0342008 0.0056063,0.0100709 0.0129213,0.0181457 0.0220394,0.0242244 0.00902756,0.00617323 0.0202362,0.0092126 0.0336299,0.0092126 0.0133937,0 0.0246024,-0.00303937 0.0336299,-0.0092126 0.00911811,-0.00607874 0.0164331,-0.0141535 0.0220394,-0.0241299 0.00560236,-0.0100709 0.00959449,-0.0214685 0.0119685,-0.0342953 0.00237402,-0.0127283 0.00361024,-0.0258386 0.00361024,-0.0392323l0 -0.0177638 0.071248 0z"/>
  <path id="1234567891011121314151617181920212223242526272829303132333435363738394041424344454647" class="fil3" d="M9.83921 4.11265l-0.0249843 0.124634 -0.0711535 0 0.104402 -0.498732 0.0735276 0 0.107063 0.498732 -0.068685 0 -0.0267874 -0.124634 -0.0933819 0zm0.0819803 -0.0534843l-0.035622 -0.213744 -0.035622 0.213744 0.0712441 0z"/>
 </g>
</svg>
